<svg width="86" height="24" viewBox="0 0 86 24" fill="none" xmlns="http://www.w3.org/2000/svg">
<path d="M23.144 18.208C22.3867 18.208 21.6747 18.0587 21.008 17.76C20.3413 17.456 19.7547 17.04 19.248 16.512C18.7467 15.9787 18.352 15.36 18.064 14.656C17.7813 13.952 17.64 13.2 17.64 12.4C17.64 11.6 17.7813 10.848 18.064 10.144C18.352 9.44 18.7467 8.824 19.248 8.296C19.7547 7.76267 20.3413 7.34667 21.008 7.048C21.6747 6.744 22.3867 6.592 23.144 6.592C24.0507 6.592 24.8853 6.80267 25.648 7.224C26.4107 7.64533 27.0427 8.20533 27.544 8.904L26.352 9.544C25.9787 9.05333 25.5067 8.664 24.936 8.376C24.3707 8.08267 23.7733 7.936 23.144 7.936C22.5627 7.936 22.0187 8.05333 21.512 8.288C21.0107 8.52267 20.5707 8.84533 20.192 9.256C19.8133 9.66667 19.5173 10.1413 19.304 10.68C19.0907 11.2187 18.984 11.792 18.984 12.4C18.984 13.0133 19.0907 13.5893 19.304 14.128C19.5227 14.6667 19.8213 15.1413 20.2 15.552C20.584 15.9627 21.0267 16.2853 21.528 16.52C22.0347 16.7493 22.5733 16.864 23.144 16.864C23.7947 16.864 24.3973 16.7173 24.952 16.424C25.512 16.1253 25.9787 15.736 26.352 15.256L27.544 15.904C27.0427 16.6027 26.4107 17.1627 25.648 17.584C24.8853 18 24.0507 18.208 23.144 18.208ZM35.142 10H36.486V18H35.142L35.086 16.648C34.8353 17.112 34.4887 17.488 34.046 17.776C33.6087 18.064 33.086 18.208 32.478 18.208C31.8913 18.208 31.342 18.0987 30.83 17.88C30.318 17.656 29.8647 17.3493 29.47 16.96C29.0807 16.5653 28.7767 16.112 28.558 15.6C28.3393 15.088 28.23 14.536 28.23 13.944C28.23 13.3733 28.3367 12.8347 28.55 12.328C28.7633 11.8213 29.0593 11.3787 29.438 11C29.822 10.616 30.2647 10.3173 30.766 10.104C31.2673 9.88533 31.806 9.776 32.382 9.776C33.0113 9.776 33.5633 9.92533 34.038 10.224C34.5127 10.5173 34.8967 10.8987 35.19 11.368L35.142 10ZM32.454 16.904C32.982 16.904 33.438 16.776 33.822 16.52C34.2113 16.2587 34.51 15.9067 34.718 15.464C34.9313 15.0213 35.038 14.5333 35.038 14C35.038 13.456 34.9313 12.9653 34.718 12.528C34.5047 12.0853 34.2033 11.736 33.814 11.48C33.43 11.2187 32.9767 11.088 32.454 11.088C31.926 11.088 31.446 11.2187 31.014 11.48C30.582 11.7413 30.238 12.0933 29.982 12.536C29.7313 12.9733 29.606 13.4613 29.606 14C29.606 14.5387 29.7367 15.0293 29.998 15.472C30.2593 15.9093 30.606 16.2587 31.038 16.52C31.47 16.776 31.942 16.904 32.454 16.904ZM40.525 18.152C40.093 18.136 39.6717 18.056 39.261 17.912C38.8557 17.7627 38.4983 17.5627 38.189 17.312C37.885 17.056 37.6637 16.7627 37.525 16.432L38.677 15.936C38.757 16.1173 38.901 16.288 39.109 16.448C39.317 16.608 39.557 16.736 39.829 16.832C40.101 16.928 40.3757 16.976 40.653 16.976C40.9463 16.976 41.221 16.9307 41.477 16.84C41.733 16.7493 41.941 16.616 42.101 16.44C42.2663 16.2587 42.349 16.0427 42.349 15.792C42.349 15.5253 42.2583 15.3173 42.077 15.168C41.901 15.0133 41.677 14.8933 41.405 14.808C41.1383 14.7173 40.8663 14.632 40.589 14.552C40.0397 14.4133 39.549 14.248 39.117 14.056C38.685 13.8587 38.3437 13.6107 38.093 13.312C37.8477 13.008 37.725 12.6213 37.725 12.152C37.725 11.656 37.861 11.2267 38.133 10.864C38.4103 10.5013 38.773 10.2213 39.221 10.024C39.669 9.82667 40.149 9.728 40.661 9.728C41.3063 9.728 41.8957 9.86667 42.429 10.144C42.9623 10.4213 43.3597 10.7973 43.621 11.272L42.541 11.904C42.4503 11.712 42.3117 11.544 42.125 11.4C41.9383 11.2507 41.725 11.1333 41.485 11.048C41.245 10.9627 40.9997 10.9173 40.749 10.912C40.4397 10.9013 40.149 10.9413 39.877 11.032C39.6103 11.1227 39.3943 11.2613 39.229 11.448C39.069 11.6293 38.989 11.856 38.989 12.128C38.989 12.3947 39.0743 12.5973 39.245 12.736C39.421 12.8747 39.6477 12.9867 39.925 13.072C40.2077 13.152 40.5143 13.2453 40.845 13.352C41.3303 13.5067 41.7837 13.6853 42.205 13.888C42.6263 14.0907 42.965 14.344 43.221 14.648C43.4823 14.952 43.6103 15.328 43.605 15.776C43.605 16.2667 43.4583 16.696 43.165 17.064C42.8717 17.4267 42.4903 17.704 42.021 17.896C41.557 18.088 41.0583 18.1733 40.525 18.152ZM52.0476 13.024V18H50.7036V13.32C50.7036 12.9147 50.605 12.5467 50.4076 12.216C50.2103 11.8853 49.9463 11.624 49.6156 11.432C49.285 11.2347 48.917 11.136 48.5116 11.136C48.1116 11.136 47.7436 11.2347 47.4076 11.432C47.077 11.624 46.813 11.8853 46.6156 12.216C46.4183 12.5467 46.3196 12.9147 46.3196 13.32V18H44.9756V6H46.3196V11C46.6023 10.6267 46.9596 10.3307 47.3916 10.112C47.8236 9.888 48.293 9.776 48.7996 9.776C49.397 9.776 49.941 9.92267 50.4316 10.216C50.9276 10.504 51.3196 10.8933 51.6076 11.384C51.901 11.8747 52.0476 12.4213 52.0476 13.024ZM53.7413 18V6.8H60.3093V8.144H55.0853V11.328H59.5413V12.672H55.0853V18H53.7413ZM61.5225 18V6H62.8665V18H61.5225ZM68.23 18.208C67.494 18.208 66.822 18.0187 66.214 17.64C65.6113 17.2613 65.1287 16.7547 64.766 16.12C64.4087 15.48 64.23 14.7733 64.23 14C64.23 13.4133 64.334 12.8667 64.542 12.36C64.75 11.848 65.0353 11.4 65.398 11.016C65.766 10.6267 66.1927 10.3227 66.678 10.104C67.1633 9.88533 67.6807 9.776 68.23 9.776C68.966 9.776 69.6353 9.96533 70.238 10.344C70.846 10.7227 71.3287 11.232 71.686 11.872C72.0487 12.512 72.23 13.2213 72.23 14C72.23 14.5813 72.126 15.1253 71.918 15.632C71.71 16.1387 71.422 16.5867 71.054 16.976C70.6913 17.36 70.2673 17.6613 69.782 17.88C69.302 18.0987 68.7847 18.208 68.23 18.208ZM68.23 16.864C68.7313 16.864 69.182 16.7333 69.582 16.472C69.9873 16.2053 70.3047 15.856 70.534 15.424C70.7687 14.9867 70.886 14.512 70.886 14C70.886 13.4773 70.766 12.9973 70.526 12.56C70.2913 12.1227 69.974 11.7733 69.574 11.512C69.174 11.2507 68.726 11.12 68.23 11.12C67.7287 11.12 67.278 11.2533 66.878 11.52C66.478 11.7813 66.1607 12.1307 65.926 12.568C65.6913 13.0053 65.574 13.4827 65.574 14C65.574 14.5333 65.694 15.0187 65.934 15.456C66.174 15.888 66.4967 16.232 66.902 16.488C67.3073 16.7387 67.75 16.864 68.23 16.864ZM76.77 18H75.41L72.73 10H74.042L76.106 16.104L78.146 10H79.53L81.578 16.104L83.618 10H84.946L82.266 18H80.898L78.826 11.84L76.77 18Z" fill="#6B66AC"/>
<path fill-rule="evenodd" clip-rule="evenodd" d="M8.50008 4C8.89128 4 9.20841 4.31713 9.20841 4.70833V20.2917C9.20841 20.6829 8.89128 21 8.50008 21C8.10888 21 7.79175 20.6829 7.79175 20.2917V4.70833C7.79175 4.31713 8.10888 4 8.50008 4Z" fill="#6B66AC"/>
<path fill-rule="evenodd" clip-rule="evenodd" d="M4.47535 7.76691C5.07312 7.16914 5.88387 6.83331 6.72925 6.83331H12.0417C12.4329 6.83331 12.7501 7.15044 12.7501 7.54165C12.7501 7.93285 12.4329 8.24998 12.0417 8.24998H6.72925C6.25959 8.24998 5.80918 8.43655 5.47708 8.76865C5.14498 9.10074 4.95841 9.55116 4.95841 10.0208C4.95841 10.4905 5.14498 10.9409 5.47708 11.273C5.80918 11.6051 6.25959 11.7916 6.72925 11.7916H10.2709C11.1163 11.7916 11.927 12.1275 12.5248 12.7252C13.1226 13.323 13.4584 14.1338 13.4584 14.9791C13.4584 15.8245 13.1226 16.6353 12.5248 17.2331C11.927 17.8308 11.1163 18.1666 10.2709 18.1666H4.25008C3.85888 18.1666 3.54175 17.8495 3.54175 17.4583C3.54175 17.0671 3.85888 16.75 4.25008 16.75H10.2709C10.7406 16.75 11.191 16.5634 11.5231 16.2313C11.8552 15.8992 12.0417 15.4488 12.0417 14.9791C12.0417 14.5095 11.8552 14.0591 11.5231 13.727C11.191 13.3949 10.7406 13.2083 10.2709 13.2083H6.72925C5.88387 13.2083 5.07312 12.8725 4.47535 12.2747C3.87757 11.6769 3.54175 10.8662 3.54175 10.0208C3.54175 9.17544 3.87757 8.36468 4.47535 7.76691Z" fill="#6B66AC"/>
</svg>
